<svg id="Слой_1" data-name="Слой 1" xmlns="http://www.w3.org/2000/svg" viewBox="0 0 60 60"><defs><style>.cls-1{fill:none;stroke:#15173f;stroke-linecap:round;stroke-linejoin:round;stroke-width:1.15px;}</style></defs><title>air_baloon</title><line class="cls-1" x1="30.2" y1="13.78" x2="30.2" y2="41.91"/><path class="cls-1" d="M35.25,41.91s6.3-11.25,6.3-16.88"/><path class="cls-1" d="M25.16,41.91S18.86,30.66,18.86,25"/><path class="cls-1" d="M35.25,15s1.26,7.27.63,12"/><path class="cls-1" d="M25.34,35s-1.26-7.27-.63-12"/><ellipse class="cls-1" cx="30.2" cy="25.04" rx="11.35" ry="11.25"/><polygon class="cls-1" points="30.2 45.66 26.11 45.66 25.16 41.91 30.2 41.91 35.25 41.91 34.3 45.66 30.2 45.66"/><line class="cls-1" x1="16.5" y1="33.5" x2="11.5" y2="33.5"/><line class="cls-1" x1="49.5" y1="20.5" x2="44.5" y2="20.5"/><line class="cls-1" x1="16.5" y1="30.5" x2="13.5" y2="30.5"/><line class="cls-1" x1="45.5" y1="23.5" x2="46.5" y2="23.5"/></svg>