<svg id="Слой_1" data-name="Слой 1" xmlns="http://www.w3.org/2000/svg" viewBox="0 0 60 60"><defs><style>.cls-1{fill:none;stroke:#15173f;stroke-linecap:round;stroke-linejoin:round;stroke-width:1.15px;}</style></defs><title>dolphin</title><path class="cls-1" d="M50.74,36.73c-2.14,0-2.14-1.67-4.28-1.67s-2.14,1.67-4.28,1.67S40,35.06,37.9,35.06s-2.14,1.67-4.28,1.67-2.14-1.67-4.28-1.67"/><path class="cls-1" d="M35.86,24.89s-.7-6.6-10.14-6.6a14.44,14.44,0,0,0-5,.86c-2-.7-6.58-2.06-10.07-.86,2.82,1.47,3.88,2.73,4.7,4.33a16.36,16.36,0,0,0-4.7,11.12c0,6.94,5.07,13.19,14.51,14.93,4,3.65,5.42,3.12,5.42,3.12s-2.27-2.43-.87-4.51a12.5,12.5,0,0,1,4.19-3.47s-6.47,0-8.74,3c-3.5-1.56-7-3.82-7.52-9.37-.61-6.48,5.59-12.33,11.71-10.59s10.1,3.31,10.49,1.39C40.05,27.32,35.86,24.89,35.86,24.89Z"/><path class="cls-1" d="M25.43,15.71s.29-8.5-3.24-10.55"/><path class="cls-1" d="M30.15,7.8a5.31,5.31,0,0,0-2.65,4.69"/></svg>