<svg id="Слой_1" data-name="Слой 1" xmlns="http://www.w3.org/2000/svg" viewBox="0 0 60 60"><defs><style>.cls-1{fill:none;stroke:#15173f;stroke-linecap:round;stroke-linejoin:round;stroke-width:1.15px;}</style></defs><title>gopro</title><path class="cls-1" d="M31.16,16.66H45a4.25,4.25,0,0,1,4.25,4.25v12.7A3.26,3.26,0,0,1,46,36.87H31.16a3.26,3.26,0,0,1-3.26-3.26V19.92A3.26,3.26,0,0,1,31.16,16.66Z"/><path class="cls-1" d="M49.28,33.76v7.8A4.25,4.25,0,0,1,45,45.82H14.66a4.25,4.25,0,0,1-4.25-4.25V20.91a4.25,4.25,0,0,1,4.25-4.25H33.34"/><polyline class="cls-1" points="15.46 16.66 15.46 12.77 24.4 12.77 24.4 16.66"/><rect class="cls-1" x="15.46" y="20.93" width="8.94" height="11.27"/><circle class="cls-1" cx="20.13" cy="39.21" r="3.11"/><circle class="cls-1" cx="38.4" cy="26.77" r="6.22"/></svg>