<svg id="Слой_1" data-name="Слой 1" xmlns="http://www.w3.org/2000/svg" viewBox="0 0 60 60"><defs><style>.cls-1{fill:none;stroke:#15173f;stroke-linecap:round;stroke-linejoin:round;stroke-width:1.15px;}</style></defs><title>guitar</title><path class="cls-1" d="M34.57,28.36c-.24-2.23-1.26-5.48-4.87-5.48-2.05,0-3.5,1.55-5.17,1.55S19,20.59,14.81,20.59,7.75,24.3,7.75,30.5"/><line class="cls-1" x1="15.88" y1="26.71" x2="15.88" y2="33.91"/><line class="cls-1" x1="13.67" y1="33.91" x2="13.67" y2="26.71"/><line class="cls-1" x1="44.68" y1="28.7" x2="26.02" y2="28.39"/><rect class="cls-1" x="44.68" y="27.48" width="9.73" height="5.51" rx="2.74" ry="2.74"/><line class="cls-1" x1="52.33" y1="27.48" x2="52.33" y2="26.33"/><line class="cls-1" x1="49.83" y1="27.48" x2="49.83" y2="26.33"/><line class="cls-1" x1="47.33" y1="27.48" x2="47.33" y2="26.33"/><path class="cls-1" d="M34.57,32.25c-.24,2.23-1.26,5.86-4.87,5.86-2.05,0-3.5-1.55-5.17-1.55S19,40.41,14.81,40.41,7.75,36.7,7.75,30.5"/><polyline class="cls-1" points="44.67 31.92 34.47 32.09 26.02 32.22"/><line class="cls-1" x1="52.33" y1="33.14" x2="52.33" y2="34.29"/><line class="cls-1" x1="49.83" y1="33.14" x2="49.83" y2="34.29"/><line class="cls-1" x1="47.33" y1="33.14" x2="47.33" y2="34.29"/><ellipse class="cls-1" cx="23.48" cy="30.31" rx="3.19" ry="3.22"/></svg>