<svg id="Слой_1" data-name="Слой 1" xmlns="http://www.w3.org/2000/svg" viewBox="0 0 60 60"><defs><style>.cls-1{fill:none;stroke:#15173f;stroke-linecap:round;stroke-linejoin:round;stroke-width:1.15px;}</style></defs><title>island</title><path class="cls-1" d="M8.41,51.85c3.75-2.54,11.36-4.28,20.15-4.28s16.59,1.78,20.28,4.37"/><path class="cls-1" d="M26.79,49.72s.71-15-5.3-22.82"/><path class="cls-1" d="M31,49.72s-.71-27.46,5.66-34.59"/><path class="cls-1" d="M22.26,28c-4.88,1.1-6.08,7.45-6.08,7.45"/><path class="cls-1" d="M22.2,28c-6-3.92-11,1.07-11,1.07"/><path class="cls-1" d="M24,19s-2.27,4.79-1.66,8.82"/><path class="cls-1" d="M15.48,21.9A12,12,0,0,1,22.2,28"/><path class="cls-1" d="M26.79,24A7.63,7.63,0,0,0,22.37,28"/><path class="cls-1" d="M24.32,13.34s8.61-2.7,12.26,1.68"/><path class="cls-1" d="M30,6.57s5.3,2.91,6.72,8.41"/><path class="cls-1" d="M43.4,23.68s-1.1-7.07-6.72-8.56"/><path class="cls-1" d="M43.76,14.41s-5.08-1.9-7.07.71"/><path class="cls-1" d="M36.69,21.9s1.17-4.53,0-6.78"/><ellipse class="cls-1" cx="39.87" cy="35.45" rx="2.83" ry="2.85"/></svg>