<svg id="Слой_1" data-name="Слой 1" xmlns="http://www.w3.org/2000/svg" viewBox="0 0 60 60"><defs><style>.cls-1{fill:none;stroke:#15173f;stroke-linecap:round;stroke-linejoin:round;stroke-width:1.15px;}</style></defs><title>lantern</title><line class="cls-1" x1="35.71" y1="21.72" x2="35.71" y2="30.37"/><path class="cls-1" d="M39.05,30.37v8.94H37.5a5.8,5.8,0,0,1-2.93-.8L28.22,34.8a5.8,5.8,0,0,0-2.93-.8H7.37V26.75H25.29a5.8,5.8,0,0,0,2.93-.8l6.34-3.72a5.8,5.8,0,0,1,2.93-.8h1.56Z"/><path class="cls-1" d="M39.05,30.37v8.94H37.5a5.8,5.8,0,0,1-2.93-.8L28.22,34.8a5.8,5.8,0,0,0-2.93-.8H7.37V26.75H25.29a5.8,5.8,0,0,0,2.93-.8l6.34-3.72a5.8,5.8,0,0,1,2.93-.8h1.56Z"/><line class="cls-1" x1="23.39" y1="24.53" x2="20.6" y2="24.53"/><line class="cls-1" x1="42.19" y1="21.43" x2="42.19" y2="39.32"/><line class="cls-1" x1="46.1" y1="30.37" x2="54.02" y2="30.37"/><line class="cls-1" x1="46.1" y1="24.55" x2="50.86" y2="21.78"/><line class="cls-1" x1="46.1" y1="36.2" x2="50.86" y2="38.97"/></svg>