<svg id="Слой_1" data-name="Слой 1" xmlns="http://www.w3.org/2000/svg" viewBox="0 0 60 60"><defs><style>.cls-1{fill:none;stroke:#15173f;stroke-linecap:round;stroke-linejoin:round;stroke-width:1.15px;}</style></defs><title>marine_star</title><path class="cls-1" d="M22.18,14.57l2.73,4.64a5.82,5.82,0,0,0,6.25,2.73l5.28-1.14A1.37,1.37,0,0,1,37.76,23l-3.6,4a5.74,5.74,0,0,0-.68,6.75l2.73,4.64a1.38,1.38,0,0,1-1.75,1.95l-5-2.16a5.84,5.84,0,0,0-6.67,1.44l-3.6,4a1.38,1.38,0,0,1-2.4-1l.54-5.34a5.76,5.76,0,0,0-3.44-5.86L9,29.27a1.37,1.37,0,0,1,.26-2.6l5.28-1.14a5.78,5.78,0,0,0,4.54-5.06l.54-5.34A1.38,1.38,0,0,1,22.18,14.57Z"/><path class="cls-1" d="M53.35,33.57a10,10,0,0,1-5.59,5.52l-5.89-1.43s-2.95-3.42-2-7.35l.12-.2c.7-.65,1,.11,2.05-.41.5-.26.8-1.26,1.49-1.44s1.32.54,2,.53,1.33-.74,2-.58,1,1.15,1.5,1.43,1.59,0,2,.44.33,1.5.65,2c.65.92,1.31.41,1.63,1.31Z"/><path class="cls-1" d="M39.6,44.91c2.35.52,1.75,3.19,0,3.76s-5,0-5-2S37,44.33,39.6,44.91Z"/><path class="cls-1" d="M42.25,18.58c-1.36-1.26.09-2.81,1.48-2.51S47,18,46.24,19.35,43.77,20,42.25,18.58Z"/><line class="cls-1" x1="22.11" y1="20" x2="22.4" y2="21.16"/><line class="cls-1" x1="34.06" y1="23.48" x2="31.44" y2="25.21"/><line class="cls-1" x1="29.1" y1="34.19" x2="30.85" y2="35.64"/></svg>