<svg id="Слой_1" data-name="Слой 1" xmlns="http://www.w3.org/2000/svg" viewBox="0 0 60 60"><defs><style>.cls-1{fill:none;stroke:#15173f;stroke-linecap:round;stroke-linejoin:round;stroke-width:1.15px;}</style></defs><title>sunglasses</title><path class="cls-1" d="M37.71,37.05a7.46,7.46,0,0,1-14.93,0"/><path class="cls-1" d="M28.34,21c.76,3.42-4.21,12.18-12.24,12.18s-7.27-6.47-6.88-9.89,2.68-7.61,9.56-7.61S27.49,17.25,28.34,21Z"/><line class="cls-1" x1="8.83" y1="23.32" x2="6.92" y2="23.32"/><path class="cls-1" d="M32.16,21c-.76,3.42,4.21,12.18,12.24,12.18s7.27-6.47,6.88-9.89-2.68-7.61-9.56-7.61S33,17.25,32.16,21Z"/><polyline class="cls-1" points="32.16 21.04 30.25 21.04 28.34 21.04"/><polyline class="cls-1" points="35.4 16.57 30.25 16.57 25.1 16.57"/><line class="cls-1" x1="51.67" y1="23.32" x2="53.58" y2="23.32"/><path class="cls-1" d="M17.65,19.82s-2.86.36-3.88,4.18"/></svg>